<?xml version="1.0" standalone="no"?><!DOCTYPE svg PUBLIC "-//W3C//DTD SVG 1.1//EN" "http://www.w3.org/Graphics/SVG/1.1/DTD/svg11.dtd"><svg t="1595291924035" class="icon" viewBox="0 0 1024 1024" version="1.1" xmlns="http://www.w3.org/2000/svg" p-id="2613" xmlns:xlink="http://www.w3.org/1999/xlink" width="200" height="200"><defs><style type="text/css"></style></defs><path d="M512.853333 768.853333l0.853334-0.853333-0.853334 0.853333z m0.853334-0.853333l83.626666 83.626667-84.48 84.462933-2.56 2.577067-83.626666-83.626667 86.186666-86.186667L426.666667 682.666667h172.373333l-85.333333 85.333333z" p-id="2614" fill="#13227a"></path><path d="M510.293333 955.733333H165.546667c-60.928-1.979733-95.2832-36.027733-97.28-95.863466V853.333333c0-4.539733 1.792-8.874667 5.000533-12.066133l170.666667-170.666667A17.015467 17.015467 0 0 1 256 665.6h153.6v-85.316267a204.868267 204.868267 0 0 1-30.856533-25.4976c-30.941867-30.941867-48.861867-68.2496-53.4016-111.0528H307.2a17.066667 17.066667 0 0 1-17.066667-17.066666v-85.333334a17.066667 17.066667 0 0 1 17.066667-17.066666h17.066667v-68.266667c0-51.6096 18.295467-96.4096 54.391466-133.137067C415.5904 86.562133 460.3904 68.266667 512 68.266667c51.677867 0 96.221867 18.3296 132.386133 54.493866C681.1136 159.470933 699.733333 204.305067 699.733333 256v68.266667h16.213334a17.066667 17.066667 0 0 1 17.066666 17.066666v85.333334a17.066667 17.066667 0 0 1-17.066666 17.066666h-17.117867a143.291733 143.291733 0 0 1-2.9696 17.5616c-6.7584 35.072-24.1664 66.798933-51.626667 93.627734a229.853867 229.853867 0 0 1-28.125866 24.098133V665.6H768c4.539733 0 8.874667 1.792 12.066133 5.000533l170.666667 170.666667A16.9984 16.9984 0 0 1 955.733333 853.333333v5.973334c-1.9968 60.398933-36.027733 94.429867-95.863466 96.4096L510.293333 955.733333zM102.434133 860.3648c1.6896 40.789333 21.367467 59.8528 63.658667 61.252267L469.0944 921.6l-54.493867-54.493867a17.0496 17.0496 0 0 1 0-24.132266l74.120534-74.120534-69.12-69.12h-156.535467l-160.631467 160.631467zM551.4752 921.6H859.306667c40.977067-1.365333 60.416-20.2752 62.242133-61.252267L760.9344 699.733333h-154.8288l-68.2496 68.266667 71.543467 71.560533a17.066667 17.066667 0 0 1 0 24.132267L551.4752 921.6z m-100.676267-66.56l59.4944 59.4944 62.907734-62.907733-59.4944-59.4944-62.907734 62.907733z m17.066667-155.306667l44.987733 44.987734L557.841067 699.733333h-89.975467zM443.733333 665.6h138.24v-68.352c-43.127467 16.913067-95.214933 17.117867-138.24 0.6144V665.6z m-8.448-109.448533c22.8352 13.1584 48.657067 19.848533 76.714667 19.848533 28.4672 0 54.715733-6.894933 78.062933-20.497067a189.098667 189.098667 0 0 0 30.173867-24.849066c22.869333-22.3232 36.625067-47.291733 42.257067-76.4928A119.893333 119.893333 0 0 0 665.6 426.666667a17.066667 17.066667 0 0 1 17.066667-17.066667h16.213333v-51.2H682.666667a17.066667 17.066667 0 0 1-17.066667-17.066667v-85.333333c0-42.9056-14.830933-78.592-45.346133-109.1072C590.301867 116.957867 554.9056 102.4 512 102.4c-42.9568 0-78.677333 14.592-109.2096 44.5952C372.992 177.322667 358.4 213.0432 358.4 256v85.333333a17.066667 17.066667 0 0 1-17.066667 17.066667h-17.066666v51.2h17.066666c9.250133 0 16.827733 7.389867 17.066667 16.64 1.041067 41.352533 15.598933 75.502933 44.4928 104.413867a166.468267 166.468267 0 0 0 32.392533 25.4976zM768 870.4h-85.333333a17.066667 17.066667 0 1 1 0-34.133333h85.333333a17.066667 17.066667 0 1 1 0 34.133333z" p-id="2615" fill="#13227a"></path></svg>