<?xml version="1.0" standalone="no"?><!DOCTYPE svg PUBLIC "-//W3C//DTD SVG 1.1//EN" "http://www.w3.org/Graphics/SVG/1.1/DTD/svg11.dtd"><svg t="1593927473344" class="icon" viewBox="0 0 1024 1024" version="1.1" xmlns="http://www.w3.org/2000/svg" p-id="4034" xmlns:xlink="http://www.w3.org/1999/xlink" width="200" height="200"><defs><style type="text/css"></style></defs><path d="M446.50124 183.429683s-71.363328-3.247974-116.870777 55.568596c-45.528939 58.814524-11.337209 148.651598 10.248411 194.994066 21.584598 46.341445 135.480624 228.190119 139.664923 232.190223 4.151553 4.010337 9.154497 2.322905 9.42772-1.276063 0.275269-3.569292 13.010315-264.227893 2.76088-328.498686-10.248412-64.272839-40.591487-145.927557-45.231157-152.978136zM199.86091 304.604486c-8.156774 0.87288-66.697051 59.253522-71.973218 116.331495-5.301749 57.07388 19.128663 95.057983 87.341231 140.499941 68.664869 48.689932 231.852532 138.264017 234.849796 130.547265 3.001357-7.696286-63.235207-125.387755-117.44076-210.986295-54.201459-85.596494-124.656091-177.262216-132.777049-176.392406z m21.946848 526.487969c49.38578 22.079878 126.322034-27.508517 147.604756-41.930994 19.792788-15.121396 56.353472-42.919509 56.353473-42.919509l-279.836383 7.489578s26.491351 55.276954 75.878154 77.360925z m7.030114-226.13532c-50.083675-25.069979-153.122423-82.662675-157.154249-81.560574-4.030803 1.100054-19.553335 72.743768 12.670577 126.742613 32.223912 53.998845 94.978165 70.511937 123.777071 74.924433 32.379455 4.613064 222.75841 2.551102 221.482347-1.277086-1.122567-3.341095-150.662395-93.782943-200.775746-118.829386z m464.281185-365.957833c-45.503357-58.81657-116.869754-55.568596-116.869754-55.568596-4.63353 7.048533-34.983769 88.703251-45.231157 152.978137-10.249435 64.271816 2.517333 324.928371 2.789532 328.500732 0.275269 3.595898 5.244444 5.281283 9.423627 1.27504 4.1536-4.002151 118.081349-185.850825 139.667993-232.19227 21.553898-46.342468 55.748698-136.177496 10.219759-194.993043zM951.064874 523.395538c-4.02978-1.103124-107.068528 56.492642-157.151179 81.560574-50.083675 25.045419-199.652156 115.488291-200.748117 118.829385-1.302669 3.827165 189.076286 5.891174 221.455741 1.277087 28.79686-4.412496 91.551112-20.925588 123.777071-74.924434 32.253588-53.997821 16.697287-125.643582 12.666484-126.742612zM653.344169 789.161461c21.278629 14.421454 98.245581 64.010873 147.634432 41.930994 49.384757-22.086018 75.881225-77.360925 75.881224-77.360925l-279.837406-7.489578c-0.002047 0 36.556591 27.802206 56.32175 42.919509z m241.551428-368.226503c-5.304819-57.07695-63.84305-115.457592-71.970148-116.331495-8.151657-0.86981-78.608336 90.795912-132.809795 176.393429-54.207599 85.59854-120.439046 203.293079-117.438713 210.986295 3.000334 7.715729 166.212556-81.857333 234.851842-130.547265 68.208475-45.442982 92.672656-83.426061 87.366814-140.500964z" p-id="4035" fill="#d81e06"></path></svg>