<?xml version="1.0" standalone="no"?><!DOCTYPE svg PUBLIC "-//W3C//DTD SVG 1.1//EN" "http://www.w3.org/Graphics/SVG/1.1/DTD/svg11.dtd"><svg t="1593927622414" class="icon" viewBox="0 0 1024 1024" version="1.1" xmlns="http://www.w3.org/2000/svg" p-id="1754" xmlns:xlink="http://www.w3.org/1999/xlink" width="200" height="200"><defs><style type="text/css"></style></defs><path d="M511.879 90.596c-232.625 0-421 188.519-421 421.32 0 178.393 110.623 330.85 267.394 392.214-3.794-33.529-6.954-84.138 1.263-120.83 7.583-32.895 49.304-209.39 49.304-209.39s-12.64-25.308-12.64-62.63c0-58.831 34.134-102.482 75.855-102.482 36.03 0 53.098 27.2 53.098 59.467 0 36.056-22.758 90.462-34.767 140.438-10.114 41.751 20.86 75.911 62.58 75.911 74.593 0 132.117-79.074 132.117-192.945 0-100.585-72.695-171.436-175.734-171.436-119.473 0-190.27 89.83-190.27 182.825 0 36.057 13.906 75.277 31.607 96.153 3.16 4.431 3.793 7.594 3.16 12.02-3.16 13.287-10.114 41.752-11.377 47.447-1.897 7.592-6.324 9.49-13.907 5.694-52.468-24.672-85.339-101.218-85.339-163.212 0-132.85 96.715-254.94 278.135-254.94 146.025 0 259.178 104.38 259.178 242.92 0 144.866-91.66 261.9-218.085 261.9-42.355 0-82.808-22.142-96.716-48.078 0 0-20.86 80.338-25.917 99.95-9.484 36.692-35.402 82.24-52.468 110.706 39.19 12.019 80.911 18.977 124.529 18.977 232.626 0 421-188.514 421-421.315 0-232.165-188.374-420.684-421-420.684z" fill="#BD081C" p-id="1755"></path></svg>