<?xml version="1.0" standalone="no"?><!DOCTYPE svg PUBLIC "-//W3C//DTD SVG 1.1//EN" "http://www.w3.org/Graphics/SVG/1.1/DTD/svg11.dtd"><svg t="1593928124800" class="icon" viewBox="0 0 1024 1024" version="1.1" xmlns="http://www.w3.org/2000/svg" p-id="6011" xmlns:xlink="http://www.w3.org/1999/xlink" width="200" height="200"><defs><style type="text/css"></style></defs><path d="M438.944 63.743v286.184c0 99.229-24.852 189.553-74.562 271.16-49.703 81.61-114.806 141.888-195.116 180.833-71.22-84.575-106.83-181.947-106.83-292.118 0-73.633 16.507-142.255 49.336-206.244 32.826-63.988 77.897-117.035 135.397-158.953 57.495-42.096 121.484-69.176 191.775-80.862z m292.117 842.6c-67.33 36.908-139.664 55.458-217.186 55.458-77.16 0-149.309-18.55-216.632-55.458 54.344-34.312 100.521-75.676 138.913-124.451 38.392-48.78 64.173-101.457 77.528-158.207 13.725 56.566 39.876 109.428 78.268 158.207 38.582 48.775 84.95 90.324 139.103 124.451h0.006zM969.02 509.802c0 110.171-35.611 207.543-106.83 292.118-80.31-38.951-145.222-99.229-195.117-180.832-49.703-81.61-74.56-172.123-74.56-271.161V63.743c70.48 11.871 134.284 38.76 191.779 80.863 57.495 42.103 102.565 95.15 135.393 158.953 32.835 63.989 49.34 132.61 49.34 206.244h-0.005z m0 0" p-id="6012" fill="#17abe3"></path></svg>