<?xml version="1.0" standalone="no"?><!DOCTYPE svg PUBLIC "-//W3C//DTD SVG 1.1//EN" "http://www.w3.org/Graphics/SVG/1.1/DTD/svg11.dtd"><svg t="1593927305453" class="icon" viewBox="0 0 1024 1024" version="1.1" xmlns="http://www.w3.org/2000/svg" p-id="1616" xmlns:xlink="http://www.w3.org/1999/xlink" width="200" height="200"><defs><style type="text/css"></style></defs><path d="M748.923 609.302c0-19.512-3.783-37.357-11.358-53.51-7.574-16.21-17.028-29.53-28.372-40.073-11.319-10.515-25.546-20.093-42.668-28.655-17.123-8.583-33.199-15.226-48.261-19.934a672.07 672.07 0 0 0-51.166-13.479l-60.85-14.012c-11.675-2.737-20.257-4.776-25.726-6.137-5.502-1.352-12.297-3.6-20.429-6.733-8.145-3.15-13.99-6.287-17.52-9.368-3.53-3.081-6.756-7.184-9.651-12.278a35.607 35.607 0 0 1-4.418-17.526c0-30.045 28.072-45.074 84.187-45.074 16.775 0 31.77 2.343 45.057 7.039 13.263 4.685 23.8 10.252 31.572 16.697a471.411 471.411 0 0 1 22.24 19.604 113.057 113.057 0 0 0 23.35 16.998 57.416 57.416 0 0 0 28.06 7.026c18.322 0 33.025-6.232 44.147-18.703 11.143-12.475 16.698-27.52 16.698-45.086 0-21.457-10.908-40.85-32.778-58.158-21.84-17.33-49.514-30.478-82.977-39.448C574.59 239.498 539.095 235 501.647 235c-26.482 0-52.212 3.03-77.149 9.077a269.007 269.007 0 0 0-69.887 27.486 140.925 140.925 0 0 0-52.018 50.906c-13.01 21.672-19.555 46.713-19.593 75.17 0 23.826 3.688 44.579 11.066 62.294a111.135 111.135 0 0 0 32.777 44.185 199.103 199.103 0 0 0 46.764 28.375c16.715 7.184 36.797 13.51 60.242 19.025l85.37 21.032c35.063 8.575 56.908 15.626 65.477 21.063 12.47 7.78 18.706 19.487 18.706 35.083 0 15.226-7.773 27.835-23.333 37.756-15.604 9.922-36.047 14.895-61.39 14.895-19.846 0-37.698-3.107-53.512-9.363-15.809-6.245-28.479-13.746-38.01-22.518-9.522-8.784-18.378-17.582-26.563-26.366-8.183-8.78-17.134-16.286-26.866-22.544a57.495 57.495 0 0 0-31.59-9.35c-19.51 0-34.214 5.831-44.13 17.513-9.93 11.694-14.888 26.315-14.888 43.867 0 35.894 23.77 66.582 71.315 92.104 47.55 25.505 104.243 38.284 170.086 38.31 28.415 0 55.72-3.597 81.845-10.836 26.154-7.235 50.002-17.672 71.623-31.285 21.605-13.638 38.842-31.855 51.697-54.678C742.576 663.384 749 637.77 749 609.302h-0.077zM961 736.498c0 61.978-21.907 114.863-65.773 158.704C851.387 939.042 798.493 961 736.524 961c-50.69 0-96.27-15.598-136.784-46.773-30.02 6.24-59.266 9.358-87.706 9.358-55.711 0-109.016-10.813-159.908-32.484-50.887-21.654-94.726-50.874-131.547-87.693-36.82-36.82-66.052-80.672-87.693-131.534a404.245 404.245 0 0 1-32.484-159.908c0-28.435 3.118-57.668 9.364-87.706C78.59 383.726 63 338.1 63 287.476c0-61.952 21.92-114.862 65.79-158.703C172.628 84.933 225.525 63 287.49 63c50.676 0 96.262 15.585 136.783 46.761a429.565 429.565 0 0 1 87.697-9.37c55.725 0 109.005 10.837 159.904 32.482 50.9 21.667 94.728 50.887 131.534 87.706 36.819 36.807 66.04 80.66 87.693 131.547a403.926 403.926 0 0 1 32.471 159.908c0 28.41-3.092 57.642-9.345 87.693C945.428 640.292 961 685.86 961 736.498z" fill="#00AFF0" p-id="1617"></path></svg>