<?xml version="1.0" standalone="no"?><!DOCTYPE svg PUBLIC "-//W3C//DTD SVG 1.1//EN" "http://www.w3.org/Graphics/SVG/1.1/DTD/svg11.dtd"><svg t="1593927614361" class="icon" viewBox="0 0 1024 1024" version="1.1" xmlns="http://www.w3.org/2000/svg" p-id="1478" xmlns:xlink="http://www.w3.org/1999/xlink" width="200" height="200"><defs><style type="text/css"></style></defs><path d="M844.398 102H178.801C136.559 102 102 136.559 102 178.801v665.597c0 42.243 34.559 76.801 76.801 76.801h665.597c42.243 0 76.801-34.558 76.801-76.801V178.801c0-42.242-34.558-76.801-76.801-76.801zM765.52 675.441l-74.879 1.118s-16.161 3.203-37.282-11.36c-28-19.199-54.398-69.277-75.039-62.719-20.8 6.559-20.16 51.52-20.16 51.52s0.16 9.602-4.64 14.719c-5.122 5.601-15.36 6.722-15.36 6.722h-33.441s-73.918 4.481-139.039-63.363c-71.039-73.918-133.758-220.637-133.758-220.637s-3.684-9.601 0.316-14.242c4.481-5.277 16.481-5.597 16.481-5.597l80.16-0.481s7.519 1.277 12.961 5.277c4.48 3.204 6.879 9.442 6.879 9.442s12.961 32.801 30.082 62.398c33.437 57.762 49.121 70.403 60.48 64.321 16.481-8.957 11.52-81.758 11.52-81.758s0.32-26.403-8.321-38.082c-6.718-9.117-19.359-11.84-24.8-12.481-4.481-0.636 2.879-11.039 12.48-15.84 14.399-7.039 39.84-7.519 69.918-7.199 23.363 0.16 30.242 1.762 39.363 3.84 27.68 6.723 18.239 32.481 18.239 94.242 0 19.84-3.52 47.68 10.718 56.797 6.082 4 21.122 0.641 58.723-63.199 17.758-30.238 31.199-65.758 31.199-65.758s2.879-6.402 7.36-9.121c4.64-2.719 10.879-1.922 10.879-1.922l84.32-0.476s25.281-3.043 29.441 8.476c4.321 12-9.441 40-43.84 85.922-56.48 75.359-62.878 68.32-15.839 111.84 44.8 41.601 54.078 61.922 55.679 64.48 18.239 30.719-20.8 33.121-20.8 33.121z" fill="#4A76A8" p-id="1479"></path></svg>